<svg id="Group_213" data-name="Group 213" xmlns="http://www.w3.org/2000/svg" width="190.275" height="63.803" viewBox="0 0 190.275 63.803">
  <g id="Subtraction_1" data-name="Subtraction 1" transform="translate(0 0)" fill="#0f0f0f">
    <path d="M 170.2524108886719 62.57402801513672 L 1.440489649772644 62.57402801513672 L 19.96764755249023 32.42570114135742 L 20.28939628601074 31.90212821960449 L 19.96767234802246 31.37857818603516 L 1.444615840911865 1.236102938652039 L 170.2565307617188 1.236102938652039 L 170.3074035644531 1.318877935409546 L 189.1012725830078 31.90212821960449 L 170.3074188232422 62.48450469970703 L 170.2524108886719 62.57402801513672 Z" stroke="none"/>
    <path d="M 169.6931915283203 61.57402801513672 L 187.9275360107422 31.90210151672363 L 169.6973266601562 2.236102819442749 L 3.232853174209595 2.236102819442749 L 21.46312141418457 31.90215301513672 L 3.228777647018433 61.57402801513672 L 169.6931915283203 61.57402801513672 M 170.6704254150391 63.80340194702148 L 170.6696166992188 63.80257797241211 L 170.4410400390625 63.57402801513672 L -3.051757857974735e-06 63.57402801513672 L 2.194824264734052e-05 63.00807952880859 L 19.11567115783691 31.90212821960449 L 2.194824264734052e-05 0.79532790184021 L 2.194824264734052e-05 0.2361028790473938 L 170.434326171875 0.2361028790473938 L 170.6704254150391 2.880859483411768e-06 L 170.8161010742188 0.2361028790473938 L 171.1593780517578 0.2361028790473938 L 171.1593933105469 0.79532790184021 L 190.2749938964844 31.90212821960449 L 171.1593933105469 63.00807952880859 L 171.1593933105469 63.57402801513672 L 170.8119506835938 63.57402801513672 L 170.6704254150391 63.80340194702148 Z" stroke="none" fill="#707070"/>
  </g>
</svg>
